<?xml version="1.0" encoding="UTF-8"?>
<svg xmlns="http://www.w3.org/2000/svg" width="1200" height="800" viewBox="0 0 1200 800" role="img" aria-labelledby="title desc">
<title id="title">Maghe Sankranti festival artwork</title>
<desc id="desc">Generated editorial artwork for Maghe Sankranti in Parva.</desc>
<defs>
  <linearGradient id="bg" x1="0" y1="0" x2="1" y2="1"><stop stop-color="#4169E1" stop-opacity="0.20"/><stop offset="0.56" stop-color="#fff8ef"/><stop offset="1" stop-color="#F4B942" stop-opacity="0.24"/></linearGradient>
  <radialGradient id="orb" cx="50%" cy="40%" r="65%"><stop stop-color="#ffffff" stop-opacity="0.92"/><stop offset="1" stop-color="#4169E1" stop-opacity="0.18"/></radialGradient>
  <filter id="shadow" x="-20%" y="-20%" width="140%" height="150%"><feDropShadow dx="0" dy="24" stdDeviation="28" flood-color="#3b2817" flood-opacity="0.18"/></filter>
</defs>
<rect width="1200" height="800" fill="url(#bg)"/>
<circle cx="1020" cy="130" r="210" fill="#F4B942" opacity="0.10"/>
<circle cx="180" cy="690" r="260" fill="#4169E1" opacity="0.10"/>
<g filter="url(#shadow)"><rect x="150" y="95" width="900" height="610" rx="54" fill="url(#orb)" stroke="#4169E1" stroke-opacity="0.22" stroke-width="3"/></g>
<g fill="none" stroke="#4169E1" stroke-width="26" stroke-linecap="round" stroke-linejoin="round" opacity="0.90"><circle cx="600" cy="420" r="125"/><path d="M600 210 V285M600 555 V630M390 420 H465M735 420 H810M452 272 L505 325M748 272 L695 325M452 568 L505 515M748 568 L695 515"/></g>
<g fill="#F4B942" opacity="0.16"><circle cx="355" cy="210" r="38"/><circle cx="850" cy="615" r="28"/><circle cx="885" cy="225" r="18"/></g>
</svg>