<?xml version="1.0" encoding="UTF-8"?>
<svg xmlns="http://www.w3.org/2000/svg" width="1200" height="800" viewBox="0 0 1200 800" role="img" aria-labelledby="title desc">
<title id="title">Prabodhini Ekadashi festival artwork</title>
<desc id="desc">Generated editorial artwork for Prabodhini Ekadashi in Parva.</desc>
<defs>
  <linearGradient id="bg" x1="0" y1="0" x2="1" y2="1"><stop stop-color="#4169E1" stop-opacity="0.20"/><stop offset="0.56" stop-color="#fff8ef"/><stop offset="1" stop-color="#8B1E2D" stop-opacity="0.24"/></linearGradient>
  <radialGradient id="orb" cx="50%" cy="40%" r="65%"><stop stop-color="#ffffff" stop-opacity="0.92"/><stop offset="1" stop-color="#4169E1" stop-opacity="0.18"/></radialGradient>
  <filter id="shadow" x="-20%" y="-20%" width="140%" height="150%"><feDropShadow dx="0" dy="24" stdDeviation="28" flood-color="#3b2817" flood-opacity="0.18"/></filter>
</defs>
<rect width="1200" height="800" fill="url(#bg)"/>
<circle cx="1020" cy="130" r="210" fill="#8B1E2D" opacity="0.10"/>
<circle cx="180" cy="690" r="260" fill="#4169E1" opacity="0.10"/>
<g filter="url(#shadow)"><rect x="150" y="95" width="900" height="610" rx="54" fill="url(#orb)" stroke="#4169E1" stroke-opacity="0.22" stroke-width="3"/></g>
<g fill="none" stroke="#4169E1" stroke-width="26" stroke-linecap="round" stroke-linejoin="round" opacity="0.90"><path d="M450 470 C470 330 680 300 775 410 C850 500 745 635 585 590 C505 570 435 545 450 470Z"/><path d="M545 445 C610 405 705 425 735 500"/></g>
<g fill="#8B1E2D" opacity="0.16"><circle cx="355" cy="210" r="38"/><circle cx="850" cy="615" r="28"/><circle cx="885" cy="225" r="18"/></g>
</svg>